<svg xmlns="http://www.w3.org/2000/svg" shape-rendering="geometricPrecision" text-rendering="geometricPrecision" image-rendering="optimizeQuality" fill-rule="evenodd" clip-rule="evenodd" viewBox="0 0 512 351.63"><path fill-rule="nonzero" d="m450.9 351.53-389.74.01v.09c-16.41 0-30.47-6.18-41.02-15.86h-.09c-6.33-5.81-11.35-12.95-14.77-20.78C1.84 307.13 0 298.65 0 290.15c0-14.33 5.02-28.92 16.13-41.03L210.68 22.07a57.61 57.61 0 0 1 6.7-6.97l1.64-1.31C230.05 4.71 243.53.14 257.04 0c14.12-.13 28.27 4.56 39.71 14.01 2.26 1.87 4.57 4.13 6.91 6.77l193.28 229.59.07-.06c10.35 11.88 14.97 25.9 14.99 39.72 0 8.93-1.98 17.71-5.62 25.65-3.7 8.07-9.01 15.31-15.63 21.07-10.4 9.05-24.08 14.76-39.85 14.78zM61.16 306.95l389.74-.01c4.09 0 7.71-1.53 10.48-3.94 1.93-1.69 3.45-3.7 4.43-5.85 1.04-2.27 1.6-4.71 1.6-7.12 0-3.43-1.29-7.06-4.15-10.35l.08-.06c-64.75-74.39-127.05-157.15-193.08-229.29-.46-.51-1.15-1.15-2.02-1.87-3.15-2.6-7.03-3.91-10.85-3.87-3.4.03-6.8 1.13-9.62 3.3l-.84.77c-.65.57-1.26 1.21-1.83 1.9C183.64 110.79 107.71 210.97 49 279.37c-2.91 3.18-4.24 7.01-4.24 10.78 0 2.49.51 4.88 1.43 7.01a17.35 17.35 0 0 0 4.1 5.74l-.04.04c2.64 2.4 6.35 3.92 10.91 3.92v.09z"/></svg>