<?xml version="1.0" standalone="no"?>
   <!DOCTYPE svg PUBLIC "-//W3C//DTD SVG 1.1//EN" 
   "http://www.w3.org/Graphics/SVG/1.1/DTD/svg11.dtd"><svg id="svg" version="1.1" width="1119" height="693" xmlns="http://www.w3.org/2000/svg"><path d="M637.500 118.675 C 630.900 121.014,621.863 125.000,617.418 127.534 C 612.972 130.068,594.072 137.379,575.418 143.781 C 519.394 163.008,503.520 168.682,480.959 177.541 C 469.111 182.194,454.515 186.000,448.523 186.000 C 442.531 186.000,430.087 189.568,420.869 193.929 C 405.064 201.405,402.382 201.749,373.804 199.961 C 341.308 197.927,258.750 184.616,206.368 172.964 L 174.236 165.817 153.868 188.550 C 142.666 201.054,128.187 217.155,121.693 224.331 L 109.887 237.379 117.800 261.939 C 133.270 309.954,152.013 431.855,158.045 523.684 L 159.881 551.640 173.691 557.456 C 197.611 567.531,207.579 569.712,243.000 572.623 C 319.813 578.936,397.155 575.409,466.375 562.439 C 480.134 559.860,501.371 557.375,513.570 556.915 C 527.588 556.386,539.014 554.206,544.624 550.989 C 554.417 545.373,626.285 520.016,691.500 499.167 C 789.442 467.856,777.278 470.510,800.483 475.391 C 840.275 483.762,883.035 502.950,914.341 526.483 C 930.337 538.507,933.845 540.034,937.844 536.714 C 940.430 534.568,957.443 516.144,975.650 495.773 C 1007.515 460.119,1008.692 458.317,1007.096 447.617 C 1006.185 441.502,1001.902 412.322,997.580 382.771 C 988.513 320.776,981.602 288.971,968.513 249.000 C 956.505 212.333,953.796 207.215,938.336 191.988 C 904.971 159.127,854.799 136.758,783.290 122.861 C 751.599 116.702,688.441 114.265,671.396 118.543 C 666.971 119.654,662.796 119.097,661.650 117.243 C 659.046 113.029,652.307 113.428,637.500 118.675 M655.135 128.250 C 655.982 131.138,662.738 154.425,670.149 180.000 C 677.560 205.575,691.237 252.150,700.541 283.500 C 709.846 314.850,722.584 358.050,728.849 379.500 C 735.114 400.950,745.136 428.511,751.120 440.746 C 757.104 452.981,762.000 464.187,762.000 465.649 C 762.000 468.248,743.858 477.000,738.470 477.000 C 731.814 477.000,710.282 422.604,691.563 358.500 C 680.482 320.550,661.332 255.344,649.008 213.598 C 636.684 171.852,627.110 136.170,627.732 134.305 C 628.683 131.452,644.731 123.988,651.548 123.228 C 652.674 123.103,654.288 125.363,655.135 128.250 M744.000 126.118 C 781.608 129.684,799.615 133.559,843.000 147.423 C 909.088 168.540,944.108 198.220,959.314 246.000 C 971.706 284.938,983.697 340.760,989.973 388.725 C 991.716 402.049,993.684 415.764,994.347 419.204 C 997.335 434.723,999.574 453.000,998.487 453.000 C 997.830 453.000,989.239 450.155,979.396 446.677 C 954.079 437.732,912.086 427.073,880.514 421.577 C 852.978 416.785,785.285 415.125,762.959 418.695 C 752.018 420.444,750.380 419.923,748.534 414.108 C 747.389 410.500,746.952 407.048,747.563 406.437 C 748.173 405.827,758.068 403.826,769.551 401.992 C 820.993 393.774,905.782 405.711,964.409 429.424 C 975.909 434.076,986.218 436.896,987.317 435.691 C 989.701 433.077,980.557 370.050,971.983 330.000 C 963.733 291.461,945.559 229.064,938.549 215.210 C 924.031 186.515,857.480 154.168,782.144 139.191 C 748.130 132.429,737.068 131.502,704.250 132.665 C 674.437 133.721,666.000 133.172,666.000 130.174 C 666.000 127.715,671.136 125.999,680.250 125.414 C 688.088 124.911,697.875 124.128,702.000 123.673 C 706.125 123.219,725.025 124.319,744.000 126.118 M636.452 199.653 C 646.096 232.569,659.511 279.075,666.263 303.000 C 673.015 326.925,681.709 356.625,685.583 369.000 C 702.139 421.887,704.447 431.730,700.928 434.439 C 699.043 435.890,675.225 444.567,648.000 453.721 C 620.775 462.875,582.559 476.054,563.076 483.008 C 543.593 489.962,527.230 495.168,526.714 494.576 C 526.199 493.984,520.255 470.550,513.507 442.500 C 480.419 304.967,455.705 203.721,454.377 200.262 C 452.790 196.126,457.046 194.393,555.000 159.291 C 587.175 147.761,614.719 138.660,616.209 139.067 C 617.699 139.473,626.808 166.737,636.452 199.653 M798.000 155.523 C 867.237 171.709,923.643 201.739,934.155 228.013 C 943.112 250.398,966.000 359.430,966.000 379.711 C 966.000 393.448,959.351 398.055,946.325 393.345 C 937.668 390.215,934.989 390.368,929.355 394.314 C 921.030 400.145,911.799 400.179,874.239 394.518 C 857.882 392.052,836.584 390.027,826.908 390.018 C 814.341 390.005,805.947 388.106,797.516 383.367 C 787.756 377.882,784.709 377.363,779.898 380.367 C 776.699 382.365,769.436 384.000,763.758 384.000 C 750.758 384.000,742.472 374.271,739.694 355.746 C 738.595 348.418,734.727 338.650,731.098 334.040 C 725.744 327.239,724.166 320.270,722.729 297.079 C 720.858 266.898,714.073 248.244,698.031 229.178 C 688.879 218.301,668.040 151.040,673.091 148.679 C 681.553 144.723,773.308 149.751,798.000 155.523 M742.500 171.000 C 741.315 172.918,750.721 174.003,768.573 174.008 C 800.369 174.016,844.252 184.157,866.638 196.668 C 879.503 203.859,884.517 204.499,880.795 198.477 C 877.549 193.226,836.023 177.612,812.376 172.752 C 786.501 167.434,745.342 166.402,742.500 171.000 M207.000 181.595 C 267.734 195.252,334.478 205.499,383.250 208.657 C 401.318 209.826,414.000 211.937,414.000 213.776 C 414.000 220.981,243.448 206.373,210.750 196.366 C 202.643 193.885,202.240 196.997,208.679 212.346 C 224.518 250.104,239.952 337.413,250.048 446.370 C 250.704 453.449,251.884 459.884,252.669 460.669 C 253.455 461.455,265.797 465.490,280.095 469.635 C 319.809 481.148,376.369 488.557,440.798 490.686 C 475.942 491.847,482.766 493.582,482.954 501.409 C 483.107 507.786,390.895 509.654,355.454 503.993 C 330.567 500.017,259.258 481.860,244.789 475.814 C 237.647 472.830,234.000 469.334,234.000 465.471 C 234.000 453.341,218.724 327.357,214.117 301.500 C 209.176 273.763,195.450 216.540,187.670 191.250 C 185.259 183.413,184.235 177.047,185.393 177.105 C 186.552 177.163,196.275 179.184,207.000 181.595 M185.595 213.750 C 202.326 274.607,209.614 313.551,216.051 376.500 C 217.907 394.650,220.000 412.875,220.702 417.000 C 221.404 421.125,222.822 435.300,223.853 448.500 C 225.607 470.971,225.288 472.882,218.847 478.500 C 215.064 481.800,212.793 483.075,213.801 481.333 C 215.606 478.214,209.268 386.304,205.434 360.000 C 197.934 308.537,181.134 233.975,169.807 201.869 C 165.775 190.443,167.686 180.000,173.807 180.000 C 175.188 180.000,180.492 195.188,185.595 213.750 M774.000 188.895 C 776.475 190.552,785.055 191.929,793.067 191.954 C 801.079 191.979,815.719 194.095,825.600 196.656 C 850.440 203.092,854.807 200.178,831.288 192.860 C 810.916 186.522,765.790 183.399,774.000 188.895 M169.251 219.750 C 191.081 292.332,202.451 360.776,208.649 456.913 C 210.656 488.033,210.464 489.619,203.847 496.663 C 200.056 500.699,196.021 504.000,194.880 504.000 C 193.739 504.000,192.881 492.188,192.973 477.750 C 193.512 392.889,182.343 312.749,159.264 235.879 C 152.086 211.973,151.061 205.220,153.914 200.652 C 155.855 197.543,158.425 195.000,159.625 195.000 C 160.825 195.000,165.157 206.138,169.251 219.750 M460.638 259.506 C 469.164 294.153,485.983 363.000,498.014 412.500 C 510.045 462.000,521.028 504.525,522.421 507.000 C 523.815 509.475,527.731 518.805,531.124 527.732 C 538.047 545.949,536.199 549.674,520.924 548.282 C 513.117 547.570,511.285 544.946,500.481 519.000 C 493.954 503.325,484.068 470.925,478.513 447.000 C 472.957 423.075,464.403 387.300,459.504 367.500 C 454.605 347.700,445.554 309.900,439.391 283.500 C 433.229 257.100,426.357 228.175,424.120 219.223 C 421.884 210.271,420.379 202.774,420.777 202.563 C 428.773 198.321,437.415 195.458,440.819 195.923 C 443.837 196.335,449.805 215.481,460.638 259.506 M540.000 205.214 C 540.000 214.415,538.428 216.314,524.141 224.378 C 498.240 238.995,485.227 262.979,492.024 283.573 C 498.418 302.946,519.762 310.208,549.807 303.232 C 563.281 300.103,563.769 300.749,571.827 332.390 C 576.324 350.050,576.649 354.745,573.507 356.687 C 567.697 360.277,554.383 357.038,546.869 350.207 C 541.632 345.445,537.615 344.530,527.756 345.852 C 510.943 348.107,507.362 352.053,513.044 362.065 C 523.611 380.685,541.237 386.013,572.250 379.961 C 583.626 377.741,585.000 378.083,585.000 383.136 C 585.000 390.222,590.580 396.000,597.423 396.000 C 604.719 396.000,606.241 392.300,603.243 381.847 C 600.806 373.350,601.574 372.181,616.827 361.170 C 642.517 342.626,651.319 316.910,639.745 294.213 C 631.324 277.698,621.363 272.315,596.239 270.702 L 574.081 269.280 569.183 250.998 C 566.488 240.943,564.963 232.037,565.793 231.207 C 566.622 230.378,573.886 232.037,581.934 234.896 C 594.447 239.340,598.553 239.562,610.283 236.424 C 617.828 234.406,624.000 231.131,624.000 229.144 C 624.000 223.082,606.458 210.358,595.184 208.243 C 589.332 207.145,578.707 207.047,571.573 208.025 C 559.620 209.663,558.455 209.221,556.743 202.401 C 555.393 197.021,552.853 195.000,547.443 195.000 C 540.976 195.000,540.000 196.340,540.000 205.214 M151.287 229.500 C 153.879 238.575,158.001 253.088,160.446 261.750 C 166.735 284.028,179.120 348.057,182.687 376.734 C 184.346 390.063,186.622 425.163,187.745 454.734 C 189.678 505.587,189.465 508.895,183.828 515.791 L 177.868 523.082 176.114 487.291 C 171.680 396.831,162.002 322.823,148.261 274.295 C 133.873 223.485,133.721 222.655,137.892 217.630 C 144.116 210.131,146.310 212.075,151.287 229.500 M798.179 218.255 C 791.841 221.475,786.756 226.888,785.003 232.278 C 782.435 240.174,783.221 242.038,792.832 250.846 C 806.741 263.593,821.593 266.447,837.255 259.385 C 858.249 249.918,856.211 229.342,833.247 218.918 C 817.406 211.727,811.252 211.611,798.179 218.255 M319.500 224.852 C 332.700 226.085,359.700 227.370,379.500 227.707 C 415.016 228.312,426.032 231.131,416.975 237.296 C 414.225 239.167,394.247 239.894,365.160 239.181 C 331.258 238.349,318.739 238.939,321.059 241.260 C 323.083 243.284,342.482 244.620,372.769 244.820 L 421.240 245.140 423.578 253.820 C 425.941 262.588,454.111 379.398,466.548 432.000 C 470.255 447.675,473.785 462.525,474.394 465.000 C 475.230 468.401,472.568 469.573,463.500 469.799 C 456.900 469.964,444.075 471.100,435.000 472.325 C 418.250 474.586,322.831 465.148,299.837 458.956 C 289.135 456.074,288.768 455.506,286.807 438.745 C 284.612 419.995,275.223 397.495,268.519 394.922 C 260.477 391.836,254.938 375.029,251.855 344.357 C 250.150 327.386,246.668 300.195,244.119 283.933 L 239.485 254.366 247.052 246.433 C 251.213 242.070,255.986 234.878,257.658 230.451 C 260.870 221.947,272.554 218.398,288.000 221.233 C 292.125 221.991,306.300 223.619,319.500 224.852 M833.749 232.241 C 839.208 237.873,842.768 243.948,841.660 245.741 C 840.552 247.533,833.080 249.000,825.056 249.000 C 811.057 249.000,810.326 248.577,807.019 238.559 C 802.823 225.845,804.813 222.000,815.589 222.000 C 821.021 222.000,827.200 225.484,833.749 232.241 M137.337 254.265 C 149.592 295.907,158.882 344.950,163.902 394.500 C 172.162 476.025,173.729 534.000,167.673 534.000 C 166.008 534.000,165.362 532.842,166.237 531.426 C 167.623 529.183,165.488 503.668,160.552 463.500 C 159.741 456.900,157.069 434.625,154.614 414.000 C 146.582 346.521,136.572 292.905,125.754 259.421 C 120.702 243.784,120.160 238.922,123.077 235.407 C 125.089 232.983,127.582 231.007,128.617 231.015 C 129.653 231.023,133.577 241.486,137.337 254.265 M551.644 253.328 C 556.859 274.039,556.293 276.000,545.100 276.000 C 533.057 276.000,528.000 271.451,528.000 260.618 C 528.000 253.168,539.527 240.000,546.048 240.000 C 547.280 240.000,549.798 245.998,551.644 253.328 M340.965 305.486 C 332.809 314.499,334.726 327.599,345.750 338.187 C 363.855 355.576,391.003 361.371,403.964 350.615 C 410.037 345.575,408.816 328.846,401.716 319.821 C 387.595 301.868,351.868 293.438,340.965 305.486 M609.750 309.241 C 617.550 318.785,616.332 330.601,606.586 339.939 C 601.958 344.372,597.411 348.000,596.481 348.000 C 595.551 348.000,592.497 339.563,589.693 329.250 C 586.889 318.938,583.856 307.936,582.953 304.802 C 581.482 299.698,582.522 299.297,592.906 300.960 C 599.364 301.995,606.826 305.663,609.750 309.241 M358.196 320.010 C 352.917 337.552,351.539 338.898,346.255 331.672 C 337.614 319.855,342.769 306.000,355.806 306.000 C 362.274 306.000,362.324 306.295,358.196 320.010 M381.000 312.046 C 385.000 314.672,385.000 315.341,381.000 318.071 C 377.192 320.670,377.768 322.186,384.750 327.934 C 395.929 337.137,395.124 341.092,381.750 342.675 C 363.322 344.857,359.368 342.721,361.729 331.860 C 366.570 309.595,370.738 305.309,381.000 312.046 M799.500 314.828 C 791.804 318.356,790.426 318.169,832.500 319.312 C 854.771 319.917,874.221 322.129,883.500 325.112 C 900.874 330.698,904.009 331.059,901.622 327.197 C 895.868 317.888,814.363 308.016,799.500 314.828 M402.000 331.738 C 402.000 334.084,399.216 333.066,394.748 329.086 C 390.759 325.533,388.193 321.497,389.045 320.118 C 391.040 316.890,402.000 326.722,402.000 331.738 M399.060 346.428 C 396.973 348.942,391.718 350.998,387.383 350.995 C 379.842 350.991,379.955 350.757,390.000 345.600 C 401.873 339.503,404.600 339.752,399.060 346.428 M337.263 392.616 C 338.413 394.477,343.144 396.000,347.776 396.000 C 352.408 396.000,374.109 399.375,396.000 403.500 C 417.891 407.625,437.984 410.959,440.651 410.909 C 452.434 410.687,434.686 405.422,400.891 399.115 C 352.967 390.170,334.591 388.293,337.263 392.616 M351.000 416.475 C 351.000 418.894,420.277 429.092,422.750 427.038 C 425.979 424.356,418.268 422.116,392.471 418.243 C 360.230 413.401,351.000 413.008,351.000 416.475 M882.000 429.376 C 918.325 435.400,993.000 457.602,993.000 462.378 C 993.000 467.940,986.020 467.847,973.055 462.112 C 936.488 445.937,867.506 435.244,798.750 435.094 C 772.867 435.037,756.000 433.839,756.000 432.057 C 756.000 423.225,834.799 421.548,882.000 429.376 M874.500 444.249 C 916.382 449.359,984.000 467.255,984.000 473.229 C 984.000 476.192,974.280 486.000,971.343 486.000 C 969.843 486.000,961.244 482.628,952.235 478.507 C 909.018 458.739,850.604 448.360,795.750 450.702 C 778.838 451.425,765.000 450.887,765.000 449.508 C 765.000 448.128,764.947 445.988,764.882 444.750 C 764.532 438.085,821.831 437.823,874.500 444.249 M719.768 462.866 C 724.272 473.442,724.912 477.535,722.193 478.381 C 720.162 479.012,701.625 485.523,681.000 492.848 C 582.212 527.934,562.500 534.621,553.598 536.065 C 544.477 537.545,543.688 536.881,537.503 522.505 C 533.926 514.190,531.000 506.245,531.000 504.848 C 531.000 503.451,543.488 498.073,558.750 492.897 C 574.013 487.720,613.500 474.038,646.500 462.492 C 692.374 446.442,707.342 442.324,710.075 445.000 C 712.042 446.925,716.403 454.965,719.768 462.866 M862.806 459.028 C 876.087 460.693,894.952 464.089,904.727 466.574 C 924.883 471.698,966.000 488.718,966.000 491.938 C 966.000 494.783,952.830 510.000,950.369 510.000 C 949.302 510.000,946.645 508.313,944.464 506.250 C 939.130 501.204,914.830 489.890,891.000 481.356 C 864.013 471.692,812.981 462.696,782.250 462.187 C 776.063 462.084,771.000 460.650,771.000 459.000 C 771.000 455.053,831.255 455.072,862.806 459.028 M860.535 478.441 C 885.923 483.737,916.962 495.531,934.998 506.736 L 947.496 514.500 939.975 523.235 C 935.681 528.222,931.605 530.677,930.477 528.957 C 923.916 518.958,875.621 491.187,845.250 479.951 C 835.763 476.441,828.000 472.900,828.000 472.082 C 828.000 471.265,830.363 471.327,833.250 472.221 C 836.138 473.114,848.416 475.914,860.535 478.441 M250.109 486.116 C 276.608 495.430,335.971 509.721,363.611 513.441 C 389.007 516.858,474.208 515.512,483.750 511.542 C 486.837 510.258,489.000 510.679,489.000 512.563 C 489.000 521.204,424.908 529.202,372.127 527.149 C 328.387 525.447,279.850 517.153,245.371 505.488 C 219.064 496.588,216.207 494.059,223.436 486.071 C 230.142 478.661,228.893 478.659,250.109 486.116 M224.346 502.727 C 284.503 528.222,375.301 539.539,442.500 529.919 C 460.650 527.320,479.888 524.307,485.250 523.222 C 493.003 521.654,495.000 522.231,495.000 526.041 C 495.000 531.726,474.676 538.046,440.421 543.013 C 375.813 552.380,268.380 544.906,214.500 527.296 C 204.600 524.060,196.031 520.963,195.457 520.413 C 194.453 519.452,210.618 498.000,212.346 498.000 C 212.812 498.000,218.212 500.127,224.346 502.727 M213.687 532.229 C 249.460 544.084,288.207 549.413,351.000 551.114 C 412.212 552.772,457.360 548.605,485.410 538.708 C 496.876 534.663,498.443 534.664,499.999 538.717 C 500.957 541.215,500.870 544.130,499.805 545.195 C 494.939 550.061,409.092 561.100,367.500 562.207 C 285.184 564.399,233.903 558.169,195.889 541.357 C 181.762 535.109,179.824 533.327,182.998 529.502 C 187.818 523.695,187.980 523.710,213.687 532.229 M188.399 544.185 C 201.050 550.722,234.165 560.995,242.745 561.046 C 247.010 561.071,252.525 562.407,255.000 564.015 C 264.310 570.063,201.201 560.432,182.508 552.953 C 171.186 548.423,169.044 545.956,173.000 542.000 C 175.958 539.042,179.385 539.528,188.399 544.185 " stroke="none" fill="black" fill-rule="evenodd"/></svg>